name Run_400 02_newCOP3_v24.mot
datacolumns 19
datarows 74
range 0.16 0.1965
DataType=double
version=3
OpenSimVersion=4.3-2021-08-27-4bc7ad9
endheader
time	R_ground_force_vx	R_ground_force_vy	R_ground_force_vz	R_ground_force_px	R_ground_force_py	R_ground_force_pz	L_ground_force_vx	L_ground_force_vy	L_ground_force_vz	L_ground_force_px	L_ground_force_py	L_ground_force_pz	R_ground_torque_x	R_ground_torque_y	R_ground_torque_z	L_ground_torque_x	L_ground_torque_y	L_ground_torque_z
0.16	216.580811	780.336121	37.899803	0.805934	0	-0.298716	0	0	0	0	0	0	0	-16.996395	0	0	0	0
0.1605	215.684998	774.668396	37.467037	0.8056990000000001	0	-0.298982	0	0	0	0	0	0	0	-16.691858	0	0	0	0
0.161	214.748962	768.7349850000001	37.017559	0.805447	0	-0.299261	0	0	0	0	0	0	0	-16.385992	0	0	0	0
0.1615	213.774811	762.546875	36.551945	0.805179	0	-0.299552	0	0	0	0	0	0	0	-16.078917	0	0	0	0
0.162	212.764603	756.114929	36.070797	0.804893	0	-0.299853	0	0	0	0	0	0	0	-15.770757	0	0	0	0
0.1625	211.720352	749.449829	35.574768	0.804589	0	-0.300164	0	0	0	0	0	0	0	-15.461636	0	0	0	0
0.163	210.644012	742.562134	35.064526	0.804267	0	-0.300485	0	0	0	0	0	0	0	-15.151676	0	0	0	0
0.1635	209.537521	735.462341	34.540775	0.803926	0	-0.300814	0	0	0	0	0	0	0	-14.841005	0	0	0	0
0.164	208.402756	728.160889	34.004238	0.803565	0	-0.30115	0	0	0	0	0	0	0	-14.529749	0	0	0	0
0.1645	207.241547	720.668213	33.455669	0.803184	0	-0.301493	0	0	0	0	0	0	0	-14.218035	0	0	0	0
0.165	206.055664	712.994629	32.89584	0.802782	0	-0.301842	0	0	0	0	0	0	0	-13.905991	0	0	0	0
0.1655	204.846832	705.150513	32.325542	0.802359	0	-0.302196	0	0	0	0	0	0	0	-13.593745	0	0	0	0
0.166	203.616684	697.146118	31.745584	0.801913	0	-0.302553	0	0	0	0	0	0	0	-13.281426	0	0	0	0
0.1665	202.366806	688.99176	31.156794	0.801445	0	-0.302914	0	0	0	0	0	0	0	-12.969164	0	0	0	0
0.167	201.098694	680.697571	30.560007	0.8009540000000001	0	-0.303277	0	0	0	0	0	0	0	-12.657086	0	0	0	0
0.1675	199.813766	672.273621	29.956079	0.800439	0	-0.303641	0	0	0	0	0	0	0	-12.345324	0	0	0	0
0.168	198.513336	663.72998	29.345871	0.7999000000000001	0	-0.304006	0	0	0	0	0	0	0	-12.034004	0	0	0	0
0.1685	197.198654	655.076477	28.730253	0.799337	0	-0.304371	0	0	0	0	0	0	0	-11.723257	0	0	0	0
0.169	195.870865	646.322815	28.110104	0.798748	0	-0.304735	0	0	0	0	0	0	0	-11.413211	0	0	0	0
0.1695	194.531052	637.478699	27.486305	0.798134	0	-0.305098	0	0	0	0	0	0	0	-11.103994	0	0	0	0
0.17	193.180145	628.553467	26.859743	0.797494	0	-0.305458	0	0	0	0	0	0	0	-10.795735	0	0	0	0
0.1705	191.819046	619.556458	26.231302	0.796829	0	-0.305816	0	0	0	0	0	0	0	-10.48856	0	0	0	0
0.171	190.448517	610.4966429999999	25.60187	0.796137	0	-0.30617	0	0	0	0	0	0	0	-10.182593	0	0	0	0
0.1715	189.069244	601.382935	24.972326	0.795419	0	-0.306521	0	0	0	0	0	0	0	-9.877962999999999	0	0	0	0
0.172	187.681854	592.223877	24.34355	0.794674	0	-0.306866	0	0	0	0	0	0	0	-9.574790999999999	0	0	0	0
0.1725	186.286819	583.028015	23.716412	0.793902	0	-0.307207	0	0	0	0	0	0	0	-9.273202	0	0	0	0
0.173	184.884613	573.803467	23.091772	0.793104	0	-0.307542	0	0	0	0	0	0	0	-8.973317	0	0	0	0
0.1735	183.475555	564.558105	22.470484	0.79228	0	-0.307871	0	0	0	0	0	0	0	-8.675255999999999	0	0	0	0
0.174	182.059952	555.299683	21.853382	0.791429	0	-0.308194	0	0	0	0	0	0	0	-8.379139	0	0	0	0
0.1745	180.637985	546.035583	21.241291	0.790551	0	-0.30851	0	0	0	0	0	0	0	-8.085082999999999	0	0	0	0
0.175	179.209808	536.772949	20.635015	0.789648	0	-0.308819	0	0	0	0	0	0	0	-7.793202	0	0	0	0
0.1755	177.775482	527.518677	20.035343	0.788718	0	-0.30912	0	0	0	0	0	0	0	-7.503613	0	0	0	0
0.176	176.335052	518.279358	19.443039	0.787762	0	-0.309414	0	0	0	0	0	0	0	-7.216425	0	0	0	0
0.1765	174.888474	509.06134	18.858845	0.786782	0	-0.309699	0	0	0	0	0	0	0	-6.931749	0	0	0	0
0.177	173.435669	499.870697	18.283478	0.785776	0	-0.309976	0	0	0	0	0	0	0	-6.649694	0	0	0	0
0.1775	171.976532	490.713196	17.717628	0.7847460000000001	0	-0.310245	0	0	0	0	0	0	0	-6.370364	0	0	0	0
0.178	170.51088	481.594391	17.161959	0.783691	0	-0.310505	0	0	0	0	0	0	0	-6.093863	0	0	0	0
0.1785	169.038544	472.51947	16.617102	0.782613	0	-0.310756	0	0	0	0	0	0	0	-5.820292	0	0	0	0
0.179	167.559311	463.493408	16.083654	0.781511	0	-0.310998	0	0	0	0	0	0	0	-5.54975	0	0	0	0
0.1795	166.072922	454.520905	15.562182	0.7803870000000001	0	-0.311231	0	0	0	0	0	0	0	-5.282332	0	0	0	0
0.18	164.579132	445.606415	15.053218	0.779241	0	-0.311455	0	0	0	0	0	0	0	-5.018132	0	0	0	0
0.1805	163.077652	436.754089	14.557253	0.778073	0	-0.311669	0	0	0	0	0	0	0	-4.757241	0	0	0	0
0.181	161.568192	427.967834	14.074744	0.776885	0	-0.311874	0	0	0	0	0	0	0	-4.499747	0	0	0	0
0.1815	160.050476	419.251312	13.606108	0.775676	0	-0.312069	0	0	0	0	0	0	0	-4.245735	0	0	0	0
0.182	158.524185	410.607971	13.151719	0.774447	0	-0.312254	0	0	0	0	0	0	0	-3.995287	0	0	0	0
0.1825	156.989044	402.040985	12.711915	0.7731980000000001	0	-0.31243	0	0	0	0	0	0	0	-3.748483	0	0	0	0
0.183	155.444717	393.553314	12.286987	0.771932	0	-0.312596	0	0	0	0	0	0	0	-3.505399	0	0	0	0
0.1835	153.89093	385.147675	11.877187	0.770647	0	-0.312752	0	0	0	0	0	0	0	-3.266108	0	0	0	0
0.184	152.327393	376.82666	11.48272	0.769344	0	-0.312899	0	0	0	0	0	0	0	-3.030681	0	0	0	0
0.1845	150.753815	368.592529	11.103753	0.768025	0	-0.313036	0	0	0	0	0	0	0	-2.799185	0	0	0	0
0.185	149.169952	360.447479	10.740405	0.766689	0	-0.313163	0	0	0	0	0	0	0	-2.571683	0	0	0	0
0.1855	147.575531	352.393402	10.392752	0.765338	0	-0.313281	0	0	0	0	0	0	0	-2.348238	0	0	0	0
0.186	145.970337	344.432159	10.060826	0.763971	0	-0.313389	0	0	0	0	0	0	0	-2.128905	0	0	0	0
0.1865	144.354126	336.565338	9.744619	0.76259	0	-0.313488	0	0	0	0	0	0	0	-1.913739	0	0	0	0
0.187	142.726715	328.794434	9.444077	0.761194	0	-0.313577	0	0	0	0	0	0	0	-1.702792	0	0	0	0
0.1875	141.087921	321.120728	9.159103	0.759785	0	-0.313657	0	0	0	0	0	0	0	-1.496111	0	0	0	0
0.188	139.437592	313.545441	8.889562	0.758363	0	-0.313727	0	0	0	0	0	0	0	-1.293741	0	0	0	0
0.1885	137.775574	306.069672	8.635275999999999	0.756929	0	-0.313789	0	0	0	0	0	0	0	-1.095722	0	0	0	0
0.189	136.101791	298.694305	8.396029	0.755482	0	-0.313841	0	0	0	0	0	0	0	-0.902093	0	0	0	0
0.1895	134.416138	291.420258	8.171564	0.754024	0	-0.313884	0	0	0	0	0	0	0	-0.712888	0	0	0	0
0.19	132.718567	284.24826	7.961592	0.752555	0	-0.313918	0	0	0	0	0	0	0	-0.528138	0	0	0	0
0.1905	131.009048	277.178925	7.765786	0.751075	0	-0.313944	0	0	0	0	0	0	0	-0.347871	0	0	0	0
0.191	129.287598	270.21286	7.583784	0.749586	0	-0.313961	0	0	0	0	0	0	0	-0.172113	0	0	0	0
0.1915	127.554245	263.350525	7.415195	0.7480869999999999	0	-0.313969	0	0	0	0	0	0	0	-0.000883	0	0	0	0
0.192	125.809044	256.592316	7.259598	0.74658	0	-0.313969	0	0	0	0	0	0	-0	0.165799	-0	0	0	0
0.1925	124.052101	249.938629	7.116543	0.7450639999999999	0	-0.313961	0	0	0	0	0	0	-0	0.327919	-0	0	0	0
0.193	122.283546	243.389679	6.985554	0.743541	0	-0.313944	0	0	0	0	0	0	-0	0.485465	-0	0	0	0
0.1935	120.50354	236.945724	6.866133	0.7420099999999999	0	-0.31392	0	0	0	0	0	0	-0	0.638429	-0	0	0	0
0.194	118.712288	230.606873	6.757761	0.740473	0	-0.313887	0	0	0	0	0	0	-0	0.7868039999999999	-0	0	0	0
0.1945	116.910027	224.373276	6.659899	0.738931	0	-0.313847	0	0	0	0	0	0	-0	0.930589	-0	0	0	0
0.195	115.097023	218.244949	6.571991	0.737383	0	-0.313799	0	0	0	0	0	0	-0	1.069785	-0	0	0	0
0.1955	113.273598	212.221893	6.49347	0.735831	0	-0.313744	0	0	0	0	0	0	-0	1.204395	-0	0	0	0
0.196	111.440102	206.304077	6.423754	0.734275	0	-0.313681	0	0	0	0	0	0	-0	1.334426	-0	0	0	0
0.1965	109.596916	200.491409	6.362256	0.732717	0	-0.31361	0	0	0	0	0	0	-0	1.459887	-0	0	0	0
